
<svg width="100%" height="100%" viewBox="0 0 12 14" version="1.1" xmlns="http://www.w3.org/2000/svg" xmlns:xlink="http://www.w3.org/1999/xlink">
    <!-- Generator: Sketch 43.1 (39012) - http://www.bohemiancoding.com/sketch -->
    <desc>Created with Sketch.</desc>
    <defs></defs>
    <g id="Page-1" stroke="none" stroke-width="1" fill="none" fill-rule="evenodd">
        <g id="Action" transform="translate(-438.000000, -245.000000)">
            <g id="ic_date_range" transform="translate(436.000000, 244.000000)">
                <g id="Icon-24px">
                    <path d="M6,7.33333333 L4.66666667,7.33333333 L4.66666667,8.66666667 L6,8.66666667 L6,7.33333333 L6,7.33333333 Z M8.66666667,7.33333333 L7.33333333,7.33333333 L7.33333333,8.66666667 L8.66666667,8.66666667 L8.66666667,7.33333333 L8.66666667,7.33333333 Z M11.3333333,7.33333333 L10,7.33333333 L10,8.66666667 L11.3333333,8.66666667 L11.3333333,7.33333333 L11.3333333,7.33333333 Z M12.6666667,2.66666667 L12,2.66666667 L12,1.33333333 L10.6666667,1.33333333 L10.6666667,2.66666667 L5.33333333,2.66666667 L5.33333333,1.33333333 L4,1.33333333 L4,2.66666667 L3.33333333,2.66666667 C2.59333333,2.66666667 2.00666667,3.26666667 2.00666667,4 L2,13.3333333 C2,14.0666667 2.59333333,14.6666667 3.33333333,14.6666667 L12.6666667,14.6666667 C13.4,14.6666667 14,14.0666667 14,13.3333333 L14,4 C14,3.26666667 13.4,2.66666667 12.6666667,2.66666667 L12.6666667,2.66666667 Z M12.6666667,13.3333333 L3.33333333,13.3333333 L3.33333333,6 L12.6666667,6 L12.6666667,13.3333333 L12.6666667,13.3333333 Z" id="Shape" fill="#000000"></path>
                    <polygon id="Shape" points="0 0 16 0 16 16 0 16"></polygon>
                </g>
            </g>
        </g>
    </g>
</svg>