<?xml version="1.0" encoding="UTF-8"?>
<svg width="100%" height="100%" viewBox="0 0 16 16" version="1.1" xmlns="http://www.w3.org/2000/svg" xmlns:xlink="http://www.w3.org/1999/xlink">
    <!-- Generator: Sketch 55.1 (78136) - https://sketchapp.com -->
    <title>icon / 16 px / delete</title>
    <desc>Created with Sketch.</desc>
    <g id="icon-/-16-px-/-delete" stroke="none" stroke-width="1" fill="none" fill-rule="evenodd">
        <rect id="Rectangle" x="0" y="0" width="16" height="16"></rect>
        <path d="M8,16 C3.581722,16 0,12.418278 0,8 C0,3.581722 3.581722,0 8,0 C12.418278,0 16,3.581722 16,8 C16,12.418278 12.418278,16 8,16 Z M7.43806647,7.43806647 L4,7.43806647 L4,8.56193353 L7.43806647,8.56193353 L7.43806647,12 L8.56193353,12 L8.56193353,8.56193353 L12,8.56193353 L12,7.43806647 L8.56193353,7.43806647 L8.56193353,4 L7.43806647,4 L7.43806647,7.43806647 Z" id="Combined-Shape" fill="#90A4AE" fill-rule="nonzero" transform="translate(8.000000, 8.000000) rotate(45.000000) translate(-8.000000, -8.000000) "></path>
    </g>
</svg>