<?xml version="1.0" encoding="UTF-8"?>
<svg width="100%" height="100%" viewBox="0 0 66 82" version="1.1" xmlns="http://www.w3.org/2000/svg" xmlns:xlink="http://www.w3.org/1999/xlink">
    <!-- Generator: Sketch 57.1 (83088) - https://sketch.com -->
    <title>docx</title>
    <desc>Created with Sketch.</desc>
    <g id="Upload-portal-1.1" stroke="none" stroke-width="1" fill="none" fill-rule="evenodd">
        <g id="4---Upload-files" transform="translate(-447.000000, -419.000000)" fill="#6D6E71" fill-rule="nonzero">
            <g id=".docx" transform="translate(447.000000, 419.000000)">
                <path d="M37.2761424,0.333333333 L65.6666667,28.7238576 L65.6666667,81.6666667 L0.333333333,81.6666667 L0.333333333,0.333333333 L37.2761424,0.333333333 Z M36.3323333,1.66633333 L1.66666667,1.66666667 L1.66666667,80.3333333 L64.3333333,80.3333333 L64.3323333,29.6663333 L36.3333333,29.6666667 L36.3323333,1.66633333 Z M26.1875,49.546875 L26.1875,61 L24.8828125,61 L24.8828125,59.953125 C24.3567682,60.7760458 23.5833384,61.1875 22.5625,61.1875 C21.9010384,61.1875 21.2929715,61.0052102 20.7382812,60.640625 C20.183591,60.2760398 19.7539078,59.7669304 19.4492187,59.1132812 C19.1445297,58.4596321 18.9921875,57.7083376 18.9921875,56.859375 C18.9921875,56.0312459 19.130207,55.2799513 19.40625,54.6054688 C19.682293,53.9309862 20.0963514,53.4140643 20.6484375,53.0546875 C21.2005236,52.6953107 21.8177049,52.515625 22.5,52.515625 C23.0000025,52.515625 23.4453105,52.6210927 23.8359375,52.8320312 C24.2265645,53.0429698 24.5442696,53.3177066 24.7890625,53.65625 L24.7890625,49.546875 L26.1875,49.546875 Z M31.765625,52.515625 C32.9062557,52.515625 33.838538,52.8893192 34.5625,53.6367188 C35.286462,54.3841183 35.6484375,55.4166601 35.6484375,56.734375 C35.6484375,57.8020887 35.4882829,58.641924 35.1679687,59.2539062 C34.8476546,59.8658885 34.3815135,60.3411441 33.7695312,60.6796875 C33.157549,61.0182309 32.489587,61.1875 31.765625,61.1875 C30.6041609,61.1875 29.6653682,60.8151079 28.9492187,60.0703125 C28.2330693,59.3255171 27.875,58.2526112 27.875,56.8515625 C27.875,55.3150965 28.3020791,54.177087 29.15625,53.4375 C29.8697952,52.8229136 30.7395782,52.515625 31.765625,52.515625 Z M40.6484375,52.515625 C41.5494837,52.515625 42.2864555,52.7434873 42.859375,53.1992188 C43.4322945,53.6549502 43.7994784,54.3020791 43.9609375,55.140625 L42.59375,55.3515625 C42.463541,54.794268 42.2330746,54.3750014 41.9023437,54.09375 C41.5716129,53.8124986 41.1718773,53.671875 40.703125,53.671875 C39.9947881,53.671875 39.419273,53.9257787 38.9765625,54.4335938 C38.533852,54.9414088 38.3125,55.7447862 38.3125,56.84375 C38.3125,57.9583389 38.5260395,58.7682266 38.953125,59.2734375 C39.3802105,59.7786484 39.9374966,60.03125 40.625,60.03125 C41.1770861,60.03125 41.638019,59.8619809 42.0078125,59.5234375 C42.377606,59.1848941 42.6119787,58.664066 42.7109375,57.9609375 L44.09375,58.140625 C43.9427076,59.0937548 43.5559927,59.8398411 42.9335937,60.3789062 C42.3111948,60.9179714 41.5468795,61.1875 40.640625,61.1875 C39.5052027,61.1875 38.5924514,60.81641 37.9023437,60.0742188 C37.2122361,59.3320275 36.8671875,58.2682361 36.8671875,56.8828125 C36.8671875,55.9869747 37.0156235,55.2031284 37.3125,54.53125 C37.6093765,53.8593716 38.0611949,53.3554704 38.6679687,53.0195312 C39.2747426,52.6835921 39.9348923,52.515625 40.6484375,52.515625 Z M17.0546875,59.3984375 L17.0546875,61 L15.453125,61 L15.453125,59.3984375 L17.0546875,59.3984375 Z M46.34375,52.703125 L47.6171875,54.6484375 C47.856772,55.018231 48.0494784,55.3281238 48.1953125,55.578125 C48.4244803,55.2343733 48.6354157,54.9296888 48.828125,54.6640625 L50.2265625,52.703125 L51.90625,52.703125 L49.0390625,56.609375 L52.125,61 L50.3984375,61 L48.6953125,58.421875 L48.2421875,57.7265625 L46.0625,61 L44.359375,61 L47.390625,56.6875 L44.5859375,52.703125 L46.34375,52.703125 Z M22.6328125,53.6796875 C22.0078094,53.6796875 21.4856792,53.9348933 21.0664062,54.4453125 C20.6471333,54.9557317 20.4375,55.7604112 20.4375,56.859375 C20.4375,57.9218803 20.6614561,58.7161432 21.109375,59.2421875 C21.5572939,59.7682318 22.0859345,60.03125 22.6953125,60.03125 C23.3098989,60.03125 23.8320291,59.7799504 24.2617187,59.2773438 C24.6914084,58.7747371 24.90625,58.0078177 24.90625,56.9765625 C24.90625,55.8411402 24.6875022,55.0078152 24.25,54.4765625 C23.8124978,53.9453098 23.2734407,53.6796875 22.6328125,53.6796875 Z M31.765625,53.6796875 C31.0624965,53.6796875 30.479169,53.9427057 30.015625,54.46875 C29.552081,54.9947943 29.3203125,55.7890572 29.3203125,56.8515625 C29.3203125,57.9140678 29.552081,58.7096328 30.015625,59.2382812 C30.479169,59.7669297 31.0624965,60.03125 31.765625,60.03125 C32.4635452,60.03125 33.0442685,59.7656277 33.5078125,59.234375 C33.9713565,58.7031223 34.203125,57.8932346 34.203125,56.8046875 C34.203125,55.7786407 33.9700544,55.0013047 33.5039062,54.4726562 C33.0377581,53.9440078 32.4583368,53.6796875 31.765625,53.6796875 Z M37.6663333,2.60933333 L37.6666667,28.3333333 L63.3903333,28.3333333 L37.6663333,2.60933333 Z"></path>
            </g>
        </g>
    </g>
</svg>