
<svg width="100%" height="100%" viewBox="0 0 26 32" version="1.1" xmlns="http://www.w3.org/2000/svg" xmlns:xlink="http://www.w3.org/1999/xlink">
    <!-- Generator: Sketch 43.1 (39012) - http://www.bohemiancoding.com/sketch -->
    <desc>Created with Sketch.</desc>
    <defs></defs>
    <g id="Page-1" stroke="none" stroke-width="1" fill="none" fill-rule="evenodd">
        <g id="Content" transform="translate(-7.000000, -164.000000)" fill="#000000">
            <g id="file-text" transform="translate(7.000000, 164.000000)">
                <path d="M14.444,0 L0,0 L0,32 L26,32 L26,11.636 L14.444,0 Z M14.444,4.113 L21.915,11.636 L14.445,11.636 L14.445,4.113 L14.444,4.113 Z M23.111,29.091 L2.89,29.091 L2.89,2.909 L11.557,2.909 L11.557,14.545 L23.11,14.545 L23.11,29.091 L23.111,29.091 Z M5.778,18.909 L20.222,18.909 L20.222,16 L5.778,16 L5.778,18.91 L5.778,18.909 Z M5.778,23.273 L20.222,23.273 L20.222,20.363 L5.778,20.363 L5.778,23.273 Z M5.778,27.636 L20.222,27.636 L20.222,24.727 L5.778,24.727 L5.778,27.637 L5.778,27.636 Z" id="Shape"></path>
            </g>
        </g>
    </g>
</svg>