<?xml version="1.0" encoding="UTF-8"?>
<svg width="100%" height="100%" viewBox="0 0 66 82" version="1.1" xmlns="http://www.w3.org/2000/svg" xmlns:xlink="http://www.w3.org/1999/xlink">
    <!-- Generator: Sketch 57.1 (83088) - https://sketch.com -->
    <title>pdf</title>
    <desc>Created with Sketch.</desc>
    <g id="Upload-portal-1.1" stroke="none" stroke-width="1" fill="none" fill-rule="evenodd">
        <g id="4---Upload-files" transform="translate(-447.000000, -935.000000)" fill="#6D6E71" fill-rule="nonzero">
            <g id=".pdf" transform="translate(447.000000, 935.000000)">
                <path d="M37.2761424,0.333333333 L65.6666667,28.7238576 L65.6666667,81.6666667 L0.333333333,81.6666667 L0.333333333,0.333333333 L37.2761424,0.333333333 Z M36.3323333,1.66633333 L1.66666667,1.66666667 L1.66666667,80.3333333 L64.3333333,80.3333333 L64.3323333,29.6663333 L36.3333333,29.6666667 L36.3323333,1.66633333 Z M29.1875,52.515625 C29.8958369,52.515625 30.5208306,52.6979148 31.0625,53.0625 C31.6041694,53.4270852 32.0130195,53.9414029 32.2890625,54.6054688 C32.5651055,55.2695346 32.703125,55.9973919 32.703125,56.7890625 C32.703125,57.6380251 32.5507828,58.4023404 32.2460937,59.0820312 C31.9414047,59.7617221 31.4987008,60.2825503 30.9179687,60.6445312 C30.3372367,61.0065122 29.7265657,61.1875 29.0859375,61.1875 C28.6171852,61.1875 28.1966164,61.0885427 27.8242187,60.890625 C27.4518211,60.6927073 27.1458345,60.4427098 26.90625,60.140625 L26.90625,64.1796875 L25.5,64.1796875 L25.5,52.703125 L26.78125,52.703125 L26.78125,53.78125 C27.0833348,53.3593729 27.4244773,53.0429698 27.8046875,52.8320312 C28.1848977,52.6210927 28.6458306,52.515625 29.1875,52.515625 Z M41.0859375,49.546875 L41.0859375,61 L39.78125,61 L39.78125,59.953125 C39.2552057,60.7760458 38.4817759,61.1875 37.4609375,61.1875 C36.7994759,61.1875 36.191409,61.0052102 35.6367187,60.640625 C35.0820285,60.2760398 34.6523453,59.7669304 34.3476562,59.1132812 C34.0429672,58.4596321 33.890625,57.7083376 33.890625,56.859375 C33.890625,56.0312459 34.0286445,55.2799513 34.3046875,54.6054688 C34.5807305,53.9309862 34.9947889,53.4140643 35.546875,53.0546875 C36.0989611,52.6953107 36.7161424,52.515625 37.3984375,52.515625 C37.89844,52.515625 38.343748,52.6210927 38.734375,52.8320312 C39.125002,53.0429698 39.4427071,53.3177066 39.6875,53.65625 L39.6875,49.546875 L41.0859375,49.546875 Z M23.0546875,59.3984375 L23.0546875,61 L21.453125,61 L21.453125,59.3984375 L23.0546875,59.3984375 Z M45.9296875,49.3515625 C46.3255228,49.3515625 46.7630184,49.398437 47.2421875,49.4921875 L47.03125,50.71875 C46.7395819,50.6666664 46.463543,50.640625 46.203125,50.640625 C45.7760395,50.640625 45.4739592,50.7317699 45.296875,50.9140625 C45.1197908,51.0963551 45.03125,51.4374975 45.03125,51.9375 L45.03125,52.703125 L46.6484375,52.703125 L46.6484375,53.796875 L45.03125,53.796875 L45.03125,61 L43.6328125,61 L43.6328125,53.796875 L42.390625,53.796875 L42.390625,52.703125 L43.6328125,52.703125 L43.6328125,51.8203125 C43.6328125,51.263018 43.6822912,50.8489597 43.78125,50.578125 C43.9166673,50.2135398 44.1549462,49.9179699 44.4960937,49.6914062 C44.8372413,49.4648426 45.3151011,49.3515625 45.9296875,49.3515625 Z M29.0546875,53.6171875 C28.4557262,53.6171875 27.9257836,53.8971326 27.4648437,54.4570312 C27.0039039,55.0169299 26.7734375,55.8307238 26.7734375,56.8984375 C26.7734375,57.9661512 26.9895812,58.7552058 27.421875,59.265625 C27.8541688,59.7760442 28.3776011,60.03125 28.9921875,60.03125 C29.6171906,60.03125 30.1523415,59.7669297 30.5976562,59.2382812 C31.042971,58.7096328 31.265625,57.8906305 31.265625,56.78125 C31.265625,55.723953 31.0481793,54.9322943 30.6132812,54.40625 C30.1783832,53.8802057 29.6588572,53.6171875 29.0546875,53.6171875 Z M37.53125,53.6796875 C36.9062469,53.6796875 36.3841167,53.9348933 35.9648437,54.4453125 C35.5455708,54.9557317 35.3359375,55.7604112 35.3359375,56.859375 C35.3359375,57.9218803 35.5598936,58.7161432 36.0078125,59.2421875 C36.4557314,59.7682318 36.984372,60.03125 37.59375,60.03125 C38.2083364,60.03125 38.7304666,59.7799504 39.1601562,59.2773438 C39.5898459,58.7747371 39.8046875,58.0078177 39.8046875,56.9765625 C39.8046875,55.8411402 39.5859397,55.0078152 39.1484375,54.4765625 C38.7109353,53.9453098 38.1718782,53.6796875 37.53125,53.6796875 Z M37.6663333,2.60933333 L37.6666667,28.3333333 L63.3903333,28.3333333 L37.6663333,2.60933333 Z"></path>
            </g>
        </g>
    </g>
</svg>