
<svg original width="100%" height="100%" viewBox="0 0 41 31" version="1.1" xmlns="http://www.w3.org/2000/svg" xmlns:xlink="http://www.w3.org/1999/xlink">
    <!-- Generator: Sketch 43.1 (39012) - http://www.bohemiancoding.com/sketch -->
    <desc>Created with Sketch.</desc>
    <defs></defs>
    <g original id="Page-1" stroke="none" stroke-width="1" fill="none" fill-rule="evenodd">
        <g original id="PwC-logo" fill-rule="nonzero">
            <polygon original id="Shape" fill="#E3731C" points="39.1 9.3 39.1 3.7 35.2 3.7 35.2 1.5 33.7 1.5 33.7 0 26 0 26 1.5 26 3.7 26 7.4 26 9.3 26 13 30.8 13 33.7 13 35.2 13 39.1 13 41 13 41 9.3"></polygon>
            <g  original id="Group">
                <g original id="Shape_1_" transform="translate(0.000000, 19.400199)" fill="#000000">
                    <path original d="M27.7,1.1 C26.4,1.3 25.7,2.3 25.7,3.9 C25.7,5.6 26.6,6.7 27.9,6.7 C28.5,6.7 29.1,6.5 30.3,5.9 L30.3,7.3 C28.9,8 28,8.2 26.9,8.2 C25.6,8.2 24.7,7.9 24,7.1 C23.3,6.4 22.9,5.4 22.9,4.3 C22.9,1.9 24.7,0.2 27.3,0.2 C29,0.2 30.3,1 30.3,2.2 C30.3,3 29.7,3.5 28.9,3.5 C28.5,3.5 28.1,3.4 27.7,3.1 L27.7,1.1 L27.7,1.1 Z" id="Path"></path>
                    <path original d="M21.2,4.3 C22.4,2.8 22.8,2.2 22.8,1.5 C22.8,0.8 22.2,0.2 21.5,0.2 C21,0.2 20.6,0.4 20.4,0.6 L20.4,3.6 L18.5,6.1 L18.5,0.4 L16.7,0.4 L13.7,5.4 L13.7,0.4 L12.7,0.4 L9.9,1.1 L9.9,1.8 L11.4,2 L11.4,8 L13.3,8 L16.2,3.3 L16.2,8 L18.3,8 L21.2,4.3 Z" id="Path"></path>
                    <path original d="M4.1,7.1 L4.5,7.1 C6.1,7.1 6.9,6.1 6.9,4.3 C6.9,2.7 6.2,1.9 5,1.9 C4.8,1.9 4.6,1.9 4.1,2 L4.1,7.1 L4.1,7.1 Z M4.1,10.4 L5.4,10.7 L5.4,11.4 L0.4,11.4 L0.4,10.7 L1.5,10.4 L1.5,1.9 L0.3,1.9 L0.3,1.2 L3.3,0.3 L4.1,0.3 L4.1,1.3 C5.5,0.5 6,0.3 6.7,0.3 C8.4,0.3 9.6,1.8 9.6,3.9 C9.6,6.4 8,8 5.4,8 L4.1,8 L4.1,10.4 L4.1,10.4 Z" id="Shape"></path>
                </g>
                <g original transform="translate(18.157143, 0.000000)">
                    <rect original id="Rectangle-path" fill="#E669A2" x="20.6" y="9.7" width="1.9" height="3.7"></rect>
                    <rect original id="Rectangle-path_1_" fill="#F3BC87" x="15.4" y="1.8" width="1.5" height="2.3"></rect>
                    <rect original id="Rectangle-path_2_" fill="#EE9C34" x="7.8" y="0.3" width="7.5" height="1.5"></rect>
                    <rect original id="Rectangle-path_3_" fill="#E3731C" x="7.8" y="1.8" width="7.5" height="2.3"></rect>
                    <rect original id="Rectangle-path_4_" fill="#F3BE26" x="16.8" y="4.1" width="3.8" height="5.6"></rect>
                    <rect original id="Rectangle-path_5_" fill="#DB4E18" x="16.8" y="9.7" width="3.8" height="3.7"></rect>
                    <rect original id="Rectangle-path_6_" fill="#E88C14" x="15.4" y="4.1" width="1.5" height="5.6"></rect>
                    <rect original id="Rectangle-path_7_" fill="#D1390D" x="15.4" y="9.7" width="1.5" height="3.7"></rect>
                    <polygon original id="Shape_2_" fill="#D85604" points="12.5 9.7 15.4 9.7 15.4 4.1 7.8 4.1 7.8 7.8 12.5 7.8"></polygon>
                    <rect original id="Rectangle-path_8_" fill="#C22303" x="12.5" y="9.7" width="2.8" height="3.7"></rect>
                    <rect original id="Rectangle-path_9_" fill="#C14303" x="7.8" y="7.8" width="4.7" height="1.9"></rect>
                    <rect original id="Rectangle-path_10_" fill="#AD1B02" x="7.8" y="9.7" width="4.7" height="3.7"></rect>
                    <rect original id="Rectangle-path_11_" fill="#AD1B02" x="0.3" y="13.4" width="7.5" height="1.9"></rect>
                </g>
            </g>
        </g>
    </g>
</svg>