<?xml version="1.0" encoding="UTF-8"?>
<svg width="100%" height="100%" viewBox="0 0 16 16" version="1.1" xmlns="http://www.w3.org/2000/svg" xmlns:xlink="http://www.w3.org/1999/xlink">
    <!-- Generator: Sketch 55.1 (78136) - https://sketchapp.com -->
    <title>icon / 16 px / search</title>
    <desc>Created with Sketch.</desc>
    <g id="icon-/-16-px-/-search" stroke="none" stroke-width="1" fill="none" fill-rule="evenodd">
        <rect id="Rectangle" x="0" y="0" width="16" height="16"></rect>
        <path d="M11.8684396,12.5755464 C10.6099721,13.6704246 8.9657347,14.3333333 7.16666667,14.3333333 C3.20862596,14.3333333 5.68434189e-14,11.1247074 5.68434189e-14,7.16666667 C5.68434189e-14,3.20862596 3.20862596,-7.10542736e-15 7.16666667,-7.10542736e-15 C11.1247074,-7.10542736e-15 14.3333333,3.20862596 14.3333333,7.16666667 C14.3333333,8.9657347 13.6704246,10.6099721 12.5755464,11.8684396 L15.8535534,15.1464466 L15.1464466,15.8535534 L11.8684396,12.5755464 Z M7.16666667,13.3333333 C10.5724226,13.3333333 13.3333333,10.5724226 13.3333333,7.16666667 C13.3333333,3.76091071 10.5724226,1 7.16666667,1 C3.76091071,1 1,3.76091071 1,7.16666667 C1,10.5724226 3.76091071,13.3333333 7.16666667,13.3333333 Z" id="Combined-Shape" fill="#90A4AE" fill-rule="nonzero"></path>
    </g>
</svg>