
<svg width="100%" height="100%" viewBox="0 0 22 21" version="1.1" xmlns="http://www.w3.org/2000/svg" xmlns:xlink="http://www.w3.org/1999/xlink">
    <!-- Generator: Sketch 43.1 (39012) - http://www.bohemiancoding.com/sketch -->
    <desc>Created with Sketch.</desc>
    <defs></defs>
    <g id="Page-1" stroke="none" stroke-width="1" fill="none" fill-rule="evenodd">
        <g id="Content" transform="translate(-23.000000, -16.000000)" fill="#2D2D2D">
            <g id="combined-shape" transform="translate(23.000000, 16.000000)">
                <path d="M9.571,4.013 L11.698,4.013 L11.698,9.617 L15.641,13.336 L14.137,14.754 L9.571,10.448 L9.571,4.013 L9.571,4.013 Z M0,0 L3.126,2.949 C5.05,1.129 7.703,0 10.635,0 C16.499,0 21.27,4.5 21.27,10.032 C21.27,15.564 16.499,20.064 10.635,20.064 C4.771,20.064 0,15.564 0,10.032 L2.127,10.032 C2.127,14.457 5.944,18.058 10.635,18.058 C15.326,18.058 19.143,14.458 19.143,10.032 C19.143,5.607 15.326,2.006 10.635,2.006 C8.289,2.006 6.165,2.91 4.625,4.364 L7.445,7.023 L0,7.023 L0,0 Z" id="Shape"></path>
            </g>
        </g>
    </g>
</svg>