<?xml version="1.0" encoding="UTF-8"?>
<svg width="100%" height="100%" viewBox="0 0 16 16" version="1.1" xmlns="http://www.w3.org/2000/svg" xmlns:xlink="http://www.w3.org/1999/xlink">
    <!-- Generator: Sketch 55.1 (78136) - https://sketchapp.com -->
    <title>icon / 16 px / unseen</title>
    <desc>Created with Sketch.</desc>
    <g id="icon-/-16-px-/-unseen" stroke="none" stroke-width="1" fill="none" fill-rule="evenodd">
        <rect id="Rectangle" x="0" y="0" width="16" height="16"></rect>
        <path d="M11.2733972,11.980504 L9.42079663,10.1279034 C8.81839998,10.5548417 8.0510477,10.7042406 7.31912806,10.5173212 C6.41724512,10.2869961 5.71300396,9.58275492 5.48267888,8.68087198 C5.29575945,7.94895234 5.44515836,7.18160006 5.87209668,6.57920342 L3.911398,4.61850473 C2.76424455,5.5619953 1.80051781,6.709331 1.06907038,8.003163 C1.15533201,8.15588884 1.27281541,8.35198103 1.42072996,8.58101001 C1.8182015,9.19644982 2.28770393,9.81219071 2.82499592,10.3853022 C4.33695981,11.9980636 6.07058308,12.9545455 7.99182638,12.9546123 C9.15770921,12.9355507 10.2921095,12.5967874 11.2733972,11.980504 Z M11.9961698,12.7032765 C10.8180988,13.4949194 9.43274189,13.9311814 8,13.9545455 C5.75328064,13.9545455 3.77951755,12.8655727 2.09545871,11.0692433 C1.51414274,10.4491729 1.00885825,9.78650473 0.580690582,9.12353544 C0.430512226,8.89100121 0.300442756,8.67456562 0.190721508,8.47950562 C0.123704305,8.36036393 0.077634275,8.27330245 0.0527864477,8.2236068 C-0.0198693562,8.07829519 -0.0173947163,7.90674234 0.0594222083,7.76358686 C0.851302486,6.28784443 1.9183679,4.97950136 3.20120139,3.90830812 L0.146446653,0.853553391 L0.853553434,0.146446609 L15.8535534,15.1464466 L15.1464467,15.8535534 L11.9961698,12.7032765 Z M6.59633154,7.30343828 C6.40882595,7.64279494 6.35270961,8.04627742 6.45158189,8.43343115 C6.59142211,8.98100294 7.0189971,9.40857793 7.56656889,9.54841816 C7.95372263,9.64729043 8.3572051,9.59117409 8.69656176,9.4036685 L6.59633154,7.30343828 Z M14.5792697,7.4189867 C14.1817981,6.80354489 13.7122957,6.18780199 13.1750036,5.61468868 C11.6630397,4.00192212 9.9294166,3.04543738 7.99884288,3.04543604 C7.55557261,3.04441017 7.11370476,3.09491332 6.68213847,3.19593163 L6.45422525,2.22225018 C6.9612579,2.10356718 7.48038694,2.04423348 8.00000004,2.04540199 C10.2467199,2.04540199 12.2204831,3.13441361 13.9045419,4.9307487 C14.4858578,5.55082096 14.9911423,6.21349118 15.4193099,6.87646248 C15.5694882,7.1089974 15.6995577,7.32543365 15.8092789,7.52049423 C15.8762961,7.63963627 15.9223661,7.72669798 15.9472139,7.77639377 C16.0197428,7.92145197 16.0174101,8.09267756 15.9409565,8.23570612 C15.510673,9.04067595 14.9975228,9.79852273 14.4098509,10.4969223 L13.6446947,9.85307767 C14.130497,9.27574174 14.5611701,8.65442845 14.9311897,7.99729664 C14.8449042,7.84450396 14.7273332,7.64824695 14.5792697,7.4189867 Z" id="Combined-Shape" fill="#90A4AE" fill-rule="nonzero"></path>
    </g>
</svg>