<?xml version="1.0" encoding="UTF-8"?>
<svg width="66px" height="82px" viewBox="0 0 66 82" version="1.1" xmlns="http://www.w3.org/2000/svg" xmlns:xlink="http://www.w3.org/1999/xlink">
    <!-- Generator: Sketch 57.1 (83088) - https://sketch.com -->
    <title>xbrl</title>
    <desc>Created with Sketch.</desc>
    <g id="Upload-portal-1.1" stroke="none" stroke-width="1" fill="none" fill-rule="evenodd">
        <g id="UI-kit" transform="translate(-813.000000, -524.000000)" fill="#6D6E71" fill-rule="nonzero">
            <path d="M850.276142,524.333333 L878.666667,552.723858 L878.666667,605.666667 L813.333333,605.666667 L813.333333,524.333333 L850.276142,524.333333 Z M849.333333,525.666333 L814.666667,525.666667 L814.666667,604.333333 L877.333333,604.333333 L877.333333,553.666333 L849.333333,553.666667 L849.333333,525.666333 Z M845.898438,573.546875 L845.898438,577.632812 C846.492188,576.888017 847.249995,576.515625 848.171875,576.515625 C848.682294,576.515625 849.165362,576.618489 849.621094,576.824219 C850.076825,577.029949 850.451821,577.319009 850.746094,577.691406 C851.040366,578.063804 851.270832,578.513018 851.4375,579.039062 C851.604168,579.565107 851.6875,580.127601 851.6875,580.726562 C851.6875,582.148445 851.335941,583.247392 850.632812,584.023438 C849.929684,584.799483 849.085942,585.1875 848.101562,585.1875 C847.122391,585.1875 846.354169,584.77865 845.796875,583.960938 L845.796875,585 L844.492188,585 L844.492188,573.546875 L845.898438,573.546875 Z M834.054688,583.398438 L834.054688,585 L832.453125,585 L832.453125,583.398438 L834.054688,583.398438 Z M837.546875,576.703125 L838.820312,578.648438 C839.059897,579.018231 839.252603,579.328124 839.398438,579.578125 C839.627605,579.234373 839.838541,578.929689 840.03125,578.664062 L841.429688,576.703125 L843.109375,576.703125 L840.242188,580.609375 L843.328125,585 L841.601562,585 L839.898438,582.421875 L839.445312,581.726562 L837.265625,585 L835.5625,585 L838.59375,580.6875 L835.789062,576.703125 L837.546875,576.703125 Z M856.445312,576.515625 C856.919273,576.515625 857.401039,576.666665 857.890625,576.96875 L857.40625,578.273438 C857.062498,578.070311 856.718752,577.96875 856.375,577.96875 C856.067707,577.96875 855.791668,578.061197 855.546875,578.246094 C855.302082,578.430991 855.127605,578.687498 855.023438,579.015625 C854.867187,579.515625 854.789062,580.062497 854.789062,580.65625 L854.789062,585 L853.382812,585 L853.382812,576.703125 L854.648438,576.703125 L854.648438,577.960938 C854.971356,577.372393 855.26953,576.984376 855.542969,576.796875 C855.816408,576.609374 856.117186,576.515625 856.445312,576.515625 Z M860.101562,573.546875 L860.101562,585 L858.695312,585 L858.695312,573.546875 L860.101562,573.546875 Z M848.046875,577.671875 C847.432289,577.671875 846.901044,577.938799 846.453125,578.472656 C846.005206,579.006513 845.78125,579.778641 845.78125,580.789062 C845.78125,581.783859 845.916665,582.502602 846.1875,582.945312 C846.630211,583.669274 847.229163,584.03125 847.984375,584.03125 C848.598961,584.03125 849.130206,583.764326 849.578125,583.230469 C850.026044,582.696612 850.25,581.901047 850.25,580.84375 C850.25,579.760411 850.035158,578.96094 849.605469,578.445312 C849.175779,577.929685 848.656253,577.671875 848.046875,577.671875 Z M850.666333,526.609333 L850.666667,552.333333 L876.390333,552.332333 L850.666333,526.609333 Z" id="xbrl"></path>
        </g>
    </g>
</svg>