<?xml version="1.0" encoding="UTF-8"?>
<svg width="100%" height="100%" viewBox="0 0 66 82" version="1.1" xmlns="http://www.w3.org/2000/svg" xmlns:xlink="http://www.w3.org/1999/xlink">
    <!-- Generator: Sketch 58 (84663) - https://sketch.com -->
    <title>xlsm</title>
    <desc>Created with Sketch.</desc>
    <g id="Upload-portal-1.1" stroke="none" stroke-width="1" fill="none" fill-rule="evenodd">
        <g id="UI-kit" transform="translate(-5760.000000, -427.000000)" fill="#6D6E71" fill-rule="nonzero">
            <g id=".xlsm" transform="translate(5760.000000, 427.000000)">
                <path d="M37.2761424,0.333333333 L65.6666667,28.7238576 L65.6666667,81.6666667 L0.333333333,81.6666667 L0.333333333,0.333333333 L37.2761424,0.333333333 Z M36.3323333,1.66633333 L1.66666667,1.66666667 L1.66666667,80.3333333 L64.3333333,80.3333333 L64.3333333,29.6663333 L36.3333333,29.6666667 L36.3323333,1.66633333 Z M33.78125,52.515625 C34.4322949,52.515625 35.0039038,52.6093741 35.4960938,52.796875 C35.9882837,52.9843759 36.3515613,53.2382796 36.5859375,53.5585938 C36.8203137,53.8789079 36.9817704,54.307289 37.0703125,54.84375 L35.6953125,55.03125 C35.6328122,54.6041645 35.4518244,54.2708345 35.1523438,54.03125 C34.8528631,53.7916655 34.4296902,53.671875 33.8828125,53.671875 C33.2369759,53.671875 32.776043,53.7786448 32.5,53.9921875 C32.223957,54.2057302 32.0859375,54.4557277 32.0859375,54.7421875 C32.0859375,54.9244801 32.1432286,55.0885409 32.2578125,55.234375 C32.3723964,55.3854174 32.5520821,55.5104162 32.796875,55.609375 L33.0968743,55.7043748 C33.3124986,55.7681246 33.6265604,55.8562494 34.0390625,55.96875 L34.5518482,56.1088589 C35.2762812,56.311855 35.7993592,56.4825987 36.1210938,56.6210938 C36.5143249,56.7903654 36.8229155,57.0364567 37.046875,57.359375 C37.2708345,57.6822933 37.3828125,58.0833309 37.3828125,58.5625 C37.3828125,59.0312523 37.2460951,59.4726542 36.9726562,59.8867188 C36.6992174,60.3007833 36.3046901,60.6210926 35.7890625,60.8476562 C35.2734349,61.0742199 34.6901074,61.1875 34.0390625,61.1875 C32.9609321,61.1875 32.1393257,60.9635439 31.5742188,60.515625 C31.0091118,60.0677061 30.6484383,59.4036502 30.4921875,58.5234375 L31.8828125,58.3046875 C31.9609379,58.861982 32.1783836,59.289061 32.5351562,59.5859375 C32.8919289,59.882814 33.3906218,60.03125 34.03125,60.03125 C34.6770866,60.03125 35.1562484,59.8997409 35.46875,59.6367188 C35.7812516,59.3736966 35.9375,59.0651059 35.9375,58.7109375 C35.9375,58.3932276 35.7994805,58.1432301 35.5234375,57.9609375 C35.3692701,57.860937 35.031773,57.7392713 34.5109389,57.5959378 L34.0859375,57.484375 C33.0546823,57.223957 32.3398457,56.9986989 31.9414062,56.8085938 C31.5429668,56.6184886 31.2408864,56.3554704 31.0351562,56.0195312 C30.8294261,55.6835921 30.7265625,55.312502 30.7265625,54.90625 C30.7265625,54.5364565 30.8111971,54.194012 30.9804688,53.8789062 C31.1497404,53.5638005 31.3802069,53.3020844 31.671875,53.09375 C31.8906261,52.9322909 32.1888002,52.7955735 32.5664062,52.6835938 C32.9440123,52.571614 33.3489562,52.515625 33.78125,52.515625 Z M17.0546875,59.3984375 L17.0546875,61 L15.453125,61 L15.453125,59.3984375 L17.0546875,59.3984375 Z M20.546875,52.703125 L21.8203125,54.6484375 L22.0853128,55.0634379 C22.2065626,55.2565626 22.3109371,55.4281242 22.3984375,55.578125 C22.5703134,55.3203112 22.7319335,55.0844728 22.8833005,54.8706058 L24.4296875,52.703125 L26.109375,52.703125 L23.2421875,56.609375 L26.328125,61 L24.6015625,61 L22.8984375,58.421875 L22.4453125,57.7265625 L20.265625,61 L18.5625,61 L21.59375,56.6875 L18.7890625,52.703125 L20.546875,52.703125 Z M28.875,49.546875 L28.875,61 L27.46875,61 L27.46875,49.546875 L28.875,49.546875 Z M47.734375,52.515625 C48.5572958,52.515625 49.190102,52.7434873 49.6328125,53.1992188 C50.075523,53.6549502 50.296875,54.3567661 50.296875,55.3046875 L50.296875,61 L48.8984375,61 L48.8984375,55.7734375 C48.8984375,55.2109347 48.852865,54.8059908 48.7617188,54.5585938 C48.6705725,54.3111967 48.5052095,54.1119799 48.265625,53.9609375 C48.0260405,53.8098951 47.7447933,53.734375 47.421875,53.734375 C46.8385388,53.734375 46.3541686,53.9283835 45.96875,54.3164062 C45.5833314,54.704429 45.390625,55.3255166 45.390625,56.1796875 L45.390625,61 L43.984375,61 L43.984375,55.609375 C43.984375,54.9843719 43.8697928,54.515625 43.640625,54.203125 C43.4114572,53.8906234 43.0364609,53.734375 42.515625,53.734375 C42.1197897,53.734375 41.7539079,53.8385406 41.4179688,54.046875 C41.0820296,54.2552094 40.8385424,54.5598938 40.6875,54.9609375 C40.5364576,55.3619812 40.4609375,55.9401004 40.4609375,56.6953125 L40.4609375,61 L39.0546875,61 L39.0546875,52.703125 L40.3125,52.703125 L40.3125,53.8671875 C40.572918,53.4609355 40.9192687,53.1341158 41.3515625,52.8867188 C41.7838563,52.6393217 42.2760389,52.515625 42.828125,52.515625 C43.4427114,52.515625 43.9466126,52.6432279 44.3398438,52.8984375 C44.7330749,53.1536471 45.0104159,53.5104144 45.171875,53.96875 C45.8281283,52.9999952 46.6822864,52.515625 47.734375,52.515625 Z M37.6663333,2.60933333 L37.6666667,28.3333333 L63.3913333,28.3333333 L37.6663333,2.60933333 Z" id="Combined-Shape"></path>
            </g>
        </g>
    </g>
</svg>