<?xml version="1.0" encoding="UTF-8"?>
<svg width="100%" height="100%" viewBox="0 0 66 82" version="1.1" xmlns="http://www.w3.org/2000/svg" xmlns:xlink="http://www.w3.org/1999/xlink">
    <!-- Generator: Sketch 57.1 (83088) - https://sketch.com -->
    <title>xslx</title>
    <desc>Created with Sketch.</desc>
    <g id="Upload-portal-1.1" stroke="none" stroke-width="1" fill="none" fill-rule="evenodd">
        <g id="4---Upload-files" transform="translate(-927.000000, -419.000000)" fill="#E0301E" fill-rule="nonzero">
            <g id=".xslx" transform="translate(927.000000, 419.000000)">
                <path d="M37.2761424,0.333333333 L65.6666667,28.7238576 L65.6666667,81.6666667 L0.333333333,81.6666667 L0.333333333,0.333333333 L37.2761424,0.333333333 Z M36.3333333,1.66633333 L1.66666667,1.66666667 L1.66666667,80.3333333 L64.3333333,80.3333333 L64.3323333,29.6663333 L36.3333333,29.6666667 L36.3333333,1.66633333 Z M33.2265625,52.515625 C33.8776074,52.515625 34.4492163,52.6093741 34.9414062,52.796875 C35.4335962,52.9843759 35.7968738,53.2382796 36.03125,53.5585938 C36.2656262,53.8789079 36.4270829,54.307289 36.515625,54.84375 L35.140625,55.03125 C35.0781247,54.6041645 34.8971369,54.2708345 34.5976562,54.03125 C34.2981756,53.7916655 33.8750027,53.671875 33.328125,53.671875 C32.6822884,53.671875 32.2213555,53.7786448 31.9453125,53.9921875 C31.6692695,54.2057302 31.53125,54.4557277 31.53125,54.7421875 C31.53125,54.9244801 31.5885411,55.0885409 31.703125,55.234375 C31.8177089,55.3854174 31.9973946,55.5104162 32.2421875,55.609375 C32.3828132,55.6614586 32.7968716,55.7812491 33.484375,55.96875 C34.4791716,56.2343763 35.1731751,56.4518221 35.5664062,56.6210938 C35.9596374,56.7903654 36.268228,57.0364567 36.4921875,57.359375 C36.716147,57.6822933 36.828125,58.0833309 36.828125,58.5625 C36.828125,59.0312523 36.6914076,59.4726542 36.4179688,59.8867188 C36.1445299,60.3007833 35.7500026,60.6210926 35.234375,60.8476562 C34.7187474,61.0742199 34.1354199,61.1875 33.484375,61.1875 C32.4062446,61.1875 31.5846382,60.9635439 31.0195312,60.515625 C30.4544243,60.0677061 30.0937508,59.4036502 29.9375,58.5234375 L31.328125,58.3046875 C31.4062504,58.861982 31.6236961,59.289061 31.9804688,59.5859375 C32.3372414,59.882814 32.8359343,60.03125 33.4765625,60.03125 C34.1223991,60.03125 34.6015609,59.8997409 34.9140625,59.6367188 C35.2265641,59.3736966 35.3828125,59.0651059 35.3828125,58.7109375 C35.3828125,58.3932276 35.244793,58.1432301 34.96875,57.9609375 C34.7760407,57.8359369 34.2968788,57.6770843 33.53125,57.484375 C32.4999948,57.223957 31.7851582,56.9986989 31.3867188,56.8085938 C30.9882793,56.6184886 30.6861989,56.3554704 30.4804688,56.0195312 C30.2747386,55.6835921 30.171875,55.312502 30.171875,54.90625 C30.171875,54.5364565 30.2565096,54.194012 30.4257812,53.8789062 C30.5950529,53.5638005 30.8255194,53.3020844 31.1171875,53.09375 C31.3359386,52.9322909 31.6341127,52.7955735 32.0117188,52.6835938 C32.3893248,52.571614 32.7942687,52.515625 33.2265625,52.515625 Z M20.0546875,59.3984375 L20.0546875,61 L18.453125,61 L18.453125,59.3984375 L20.0546875,59.3984375 Z M23.546875,52.703125 L24.8203125,54.6484375 C25.059897,55.018231 25.2526034,55.3281238 25.3984375,55.578125 C25.6276053,55.2343733 25.8385407,54.9296888 26.03125,54.6640625 L27.4296875,52.703125 L29.109375,52.703125 L26.2421875,56.609375 L29.328125,61 L27.6015625,61 L25.8984375,58.421875 L25.4453125,57.7265625 L23.265625,61 L21.5625,61 L24.59375,56.6875 L21.7890625,52.703125 L23.546875,52.703125 Z M39.875,49.546875 L39.875,61 L38.46875,61 L38.46875,49.546875 L39.875,49.546875 Z M43.1015625,52.703125 L44.375,54.6484375 C44.6145845,55.018231 44.8072909,55.3281238 44.953125,55.578125 C45.1822928,55.2343733 45.3932282,54.9296888 45.5859375,54.6640625 L46.984375,52.703125 L48.6640625,52.703125 L45.796875,56.609375 L48.8828125,61 L47.15625,61 L45.453125,58.421875 L45,57.7265625 L42.8203125,61 L41.1171875,61 L44.1484375,56.6875 L41.34375,52.703125 L43.1015625,52.703125 Z M37.6663333,2.60933333 L37.6666667,28.3333333 L63.3903333,28.3333333 L37.6663333,2.60933333 Z"></path>
            </g>
        </g>
    </g>
</svg>