<?xml version="1.0" encoding="UTF-8"?>
<svg width="66px" height="82px" viewBox="0 0 66 82" version="1.1" xmlns="http://www.w3.org/2000/svg" xmlns:xlink="http://www.w3.org/1999/xlink">
    <!-- Generator: Sketch 57.1 (83088) - https://sketch.com -->
    <title>xml</title>
    <desc>Created with Sketch.</desc>
    <g id="Upload-portal-1.1" stroke="none" stroke-width="1" fill="none" fill-rule="evenodd">
        <g id="UI-kit" transform="translate(-948.000000, -524.000000)" fill="#6D6E71" fill-rule="nonzero">
            <path d="M984.942809,524 L1013.33333,552.390524 L1013.33333,605.333333 L948,605.333333 L948,524 L984.942809,524 Z M984,525.333 L949.333333,525.333333 L949.333333,604 L1012,604 L1011.999,553.333 L984,553.333333 L984,525.333 Z M968.721354,583.065104 L968.721354,584.666667 L967.119792,584.666667 L967.119792,583.065104 L968.721354,583.065104 Z M972.213542,576.369792 L973.486979,578.315104 C973.726564,578.684898 973.91927,578.99479 974.065104,579.244792 C974.294272,578.90104 974.505207,578.596355 974.697917,578.330729 L976.096354,576.369792 L977.776042,576.369792 L974.908854,580.276042 L977.994792,584.666667 L976.268229,584.666667 L974.565104,582.088542 L974.111979,581.393229 L971.932292,584.666667 L970.229167,584.666667 L973.260417,580.354167 L970.455729,576.369792 L972.213542,576.369792 Z M987.846354,576.182292 C988.669275,576.182292 989.302081,576.410154 989.744792,576.865885 C990.187502,577.321617 990.408854,578.023433 990.408854,578.971354 L990.408854,584.666667 L989.010417,584.666667 L989.010417,579.440104 C989.010417,578.877601 988.964844,578.472657 988.873698,578.22526 C988.782552,577.977863 988.617189,577.778647 988.377604,577.627604 C988.13802,577.476562 987.856772,577.401042 987.533854,577.401042 C986.950518,577.401042 986.466148,577.59505 986.080729,577.983073 C985.695311,578.371096 985.502604,578.992183 985.502604,579.846354 L985.502604,584.666667 L984.096354,584.666667 L984.096354,579.276042 C984.096354,578.651039 983.981772,578.182292 983.752604,577.869792 C983.523436,577.55729 983.14844,577.401042 982.627604,577.401042 C982.231769,577.401042 981.865887,577.505207 981.529948,577.713542 C981.194009,577.921876 980.950522,578.22656 980.799479,578.627604 C980.648437,579.028648 980.572917,579.606767 980.572917,580.361979 L980.572917,584.666667 L979.166667,584.666667 L979.166667,576.369792 L980.424479,576.369792 L980.424479,577.533854 C980.684897,577.127602 981.031248,576.800782 981.463542,576.553385 C981.895835,576.305988 982.388018,576.182292 982.940104,576.182292 C983.554691,576.182292 984.058592,576.309895 984.451823,576.565104 C984.845054,576.820314 985.122395,577.177081 985.283854,577.635417 C985.940107,576.666662 986.794266,576.182292 987.846354,576.182292 Z M993.869792,573.213542 L993.869792,584.666667 L992.463542,584.666667 L992.463542,573.213542 L993.869792,573.213542 Z M985.333,526.276 L985.333333,552 L1011.056,551.999 L985.333,526.276 Z" id="xml"></path>
        </g>
    </g>
</svg>