<?xml version="1.0" encoding="UTF-8"?>
<svg width="100%" height="100%" viewBox="0 0 12 12" version="1.1" xmlns="http://www.w3.org/2000/svg" xmlns:xlink="http://www.w3.org/1999/xlink">
    <!-- Generator: Sketch 55.1 (78136) - https://sketchapp.com -->
    <title>icon / 12 px / calendar</title>
    <desc>Created with Sketch.</desc>
    <g id="icon-/-12-px-/-calendar" stroke="none" stroke-width="1" fill="none" fill-rule="evenodd">
        <rect id="Rectangle" x="0" y="0" width="12" height="12"></rect>
        <path d="M10.6434783,4.06956522 L10.6434783,3.23478261 C10.6434783,2.37033691 9.94270656,1.66956522 9.07826087,1.66956522 L8.8173913,1.66956522 L8.8173913,2.29565217 L7.77391304,2.29565217 L7.77391304,1.66956522 L4.22608696,1.66956522 L4.22608696,2.29565217 L3.1826087,2.29565217 L3.1826087,1.66956522 L2.92173913,1.66956522 C2.05729344,1.66956522 1.35652174,2.37033691 1.35652174,3.23478261 L1.35652174,4.06956522 L10.6434783,4.06956522 Z M10.6434783,5.11304348 L1.35652174,5.11304348 L1.35652174,9.39130435 C1.35652174,10.25575 2.05729344,10.9565217 2.92173913,10.9565217 L9.07826087,10.9565217 C9.94270656,10.9565217 10.6434783,10.25575 10.6434783,9.39130435 L10.6434783,5.11304348 Z M4.22608696,0.626086957 L7.77391304,0.626086957 L7.77391304,-5.77315973e-15 L8.8173913,-5.77315973e-15 L8.8173913,0.626086957 L9.07826087,0.626086957 C10.5190037,0.626086957 11.6869565,1.79403978 11.6869565,3.23478261 L11.6869565,9.39130435 C11.6869565,10.8320472 10.5190037,12 9.07826087,12 L2.92173913,12 C1.4809963,12 0.313043478,10.8320472 0.313043478,9.39130435 L0.313043478,3.23478261 C0.313043478,1.79403978 1.4809963,0.626086957 2.92173913,0.626086957 L3.1826087,0.626086957 L3.1826087,-5.77315973e-15 L4.22608696,-5.77315973e-15 L4.22608696,0.626086957 Z" id="Combined-Shape" fill="#90A4AE" fill-rule="nonzero"></path>
    </g>
</svg>