<?xml version="1.0" encoding="UTF-8"?>
<svg width="100%" height="100%" viewBox="0 0 12 12" version="1.1" xmlns="http://www.w3.org/2000/svg" xmlns:xlink="http://www.w3.org/1999/xlink">
    <!-- Generator: Sketch 55.2 (78181) - https://sketchapp.com -->
    <title>icon / 12 px / clock</title>
    <desc>Created with Sketch.</desc>
    <g id="icon-/-12-px-/-clock" stroke="none" stroke-width="1" fill="none" fill-rule="evenodd">
        <rect id="Rectangle" x="0" y="0" width="12" height="12"></rect>
        <path d="M6,12 C2.6862915,12 0,9.3137085 0,6 C0,2.6862915 2.6862915,0 6,0 C9.3137085,0 12,2.6862915 12,6 C12,9.3137085 9.3137085,12 6,12 Z M6,11 C8.76142375,11 11,8.76142375 11,6 C11,3.23857625 8.76142375,1 6,1 C3.23857625,1 1,3.23857625 1,6 C1,8.76142375 3.23857625,11 6,11 Z M6.5,2.7 L6.5,5.69098301 L8.4236068,6.6527864 L7.9763932,7.5472136 L5.5,6.30901699 L5.5,2.7 L6.5,2.7 Z" id="Combined-Shape" fill="#90A4AE" fill-rule="nonzero"></path>
    </g>
</svg>